HIERARCHY
ROOT ui
{
	 OFFSET 0 0 0
	 CHANNELS 3 XPosition YPosition Z Position
	 EndSite
	 {
	 OFFSET 0 -1 0
	 }
}
ROOT li
{
	 OFFSET 0 0 0
	 CHANNELS 3 XPosition YPosition Z Position
	 EndSite
	 {
	 OFFSET 0 -1 0
	 }
}
ROOT ul
{
	 OFFSET 0 0 0
	 CHANNELS 3 XPosition YPosition Z Position
	 EndSite
	 {
	 OFFSET 0 -1 0
	 }
}
ROOT ll
{
	 OFFSET 0 0 0
	 CHANNELS 3 XPosition YPosition Z Position
	 EndSite
	 {
	 OFFSET 0 -1 0
	 }
}
ROOT tt
{
	 OFFSET 0 0 0
	 CHANNELS 3 XPosition YPosition Z Position
	 EndSite
	 {
	 OFFSET 0 -1 0
	 }
}
ROOT tb
{
	 OFFSET 0 0 0
	 CHANNELS 3 XPosition YPosition Z Position
	 EndSite
	 {
	 OFFSET 0 -1 0
	 }
}
ROOT td
{
	 OFFSET 0 0 0
	 CHANNELS 3 XPosition YPosition Z Position
	 EndSite
	 {
	 OFFSET 0 -1 0
	 }
}
ROOT v
{
	 OFFSET 0 0 0
	 CHANNELS 3 XPosition YPosition Z Position
	 EndSite
	 {
	 OFFSET 0 -1 0
	 }
}
ROOT bn
{
	 OFFSET 0 0 0
	 CHANNELS 3 XPosition YPosition Z Position
	 EndSite
	 {
	 OFFSET 0 -1 0
	 }
}
MOTION
Frames: 29
Frame Time: 0.002
0.025943923950195312	0.001698930025100708	0		0.4763160400390625	-2.488990478515625	0		-0.789568115234375	0.42749835205078124	0		-0.5384341430664062	-2.95403564453125	0		1.709290283203125	-0.7952064208984375	0		3.3224072265625	-0.43967919921875	0		4.42389501953125	-0.16896919250488282	0		5.98036767578125	0.3967167053222656	0		-0.1601714630126953	5.93889501953125	0		
0.004910987854003906	-1.5313200652599334E-4	0		0.5241920776367187	-2.503251953125	0		-0.7996332397460938	0.41958798217773435	0		-0.5945834350585938	-2.97167724609375	0		1.7110506591796875	-0.8312062377929688	0		3.310288330078125	-0.45560943603515625	0		4.428791015625	-0.18300645446777344	0		5.97126123046875	0.3817482604980469	0		-0.1762056884765625	5.92901513671875	0		
0.004959205150604248	-1.3335199654102326E-4	0		0.4691516418457031	-2.514911865234375	0		-0.7995818481445313	0.4196138305664063	0		-0.4787953491210937	-3.012335693359375	0		1.7399212646484374	-0.8603696899414063	0		3.332232666015625	-0.4727439270019531	0		4.43879736328125	-0.190077392578125	0		5.96240673828125	0.39777569580078126	0		-0.17611268615722656	5.9290361328125	0		
0.002051076889038086	-0.00410096788406372	0		0.47718341064453124	-2.525947509765625	0		-0.80448681640625	0.41566397094726565	0		-0.5548189086914063	-3.03186865234375	0		1.7108126220703126	-0.8971961669921875	0		3.354243896484375	-0.4898834228515625	0		4.44978271484375	-0.2121586151123047	0		5.9624306640625	0.3817464904785156	0		-0.1598946533203125	5.93895751953125	0		
0.005253280162811279	-1.0945899784564972E-4	0		0.4753319091796875	-2.527929931640625	0		-0.7943584594726563	0.4066202392578125	0		-0.483822998046875	-3.059274169921875	0		1.75685986328125	-0.9184706420898437	0		3.33544873046875	-0.484786376953125	0		4.46496044921875	-0.21226881408691406	0		5.95865380859375	0.3887359313964844	0		-0.15967279052734376	5.93896826171875	0		
0.005490231990814209	-1.053059995174408E-4	0		0.5084613647460937	-2.5431240234375	0		-0.7941185913085937	0.40663015747070314	0		-0.5197198486328125	-3.078053466796875	0		1.7460135498046876	-0.9314138793945312	0		3.37252783203125	-0.5110245971679688	0		4.4781669921875	-0.21737216186523436	0		5.95485205078125	0.38172091674804687	0		-0.17445779418945312	5.9280625	0		
0.005779391765594483	-1.0577499866485595E-4	0		0.5406249389648438	-2.561317138671875	0		-0.8028736572265625	0.39868890380859373	0		-0.489625244140625	-3.10722705078125	0		1.7639522705078126	-0.9895325317382813	0		3.400771484375	-0.5182151489257812	0		4.51731884765625	-0.2406341552734375	0		5.95514404296875	0.38167724609375	0		-0.17412559509277345	5.9280634765625	0		
0.006113338947296143	-1.1027699708938599E-4	0		0.5089285888671875	-2.563135986328125	0		-0.8075604248046875	0.39472012329101563	0		-0.5034030151367187	-3.122144775390625	0		1.78705908203125	-1.026685791015625	0		3.38295361328125	-0.5431376953125	0		4.5076640625	-0.23861138916015626	0		5.9553798828125	0.3646289367675781	0		-0.1737476806640625	5.92806005859375	0		
0.0034595570564270018	-0.004100255012512207	0		0.540177490234375	-2.580331298828125	0		-0.8122111206054687	0.39074822998046876	0		-0.45927139282226564	-3.1584091796875	0		1.7742314453125	-1.0586295166015625	0		3.37626025390625	-0.553129638671875	0		4.49995654296875	-0.2516043701171875	0		5.9387529296875	0.36467657470703124	0		-0.17233847045898437	5.9270478515625	0		
0.0068789381980896	-1.2838399410247802E-4	0		0.4945298461914063	-2.584072265625	0		-0.876817138671875	0.39013076782226563	0		-0.48104879760742186	-3.18328466796875	0		1.7984757080078124	-1.0827958984375	0		3.429591064453125	-0.5634812622070312	0		4.5342080078125	-0.27585012817382815	0		5.9481455078125	0.36356607055664064	0		-0.15484284973144533	5.9359375	0		
0.01533028793334961	0.006812481880187988	0		0.5508878173828125	-2.5894208984375	0		-0.7964293823242188	0.3856505126953125	0		-0.45373684692382815	-3.195452392578125	0		1.80568017578125	-1.1158629150390624	0		3.40198486328125	-0.5653538818359375	0		4.53367626953125	-0.2658910522460938	0		5.9435166015625	0.35653607177734375	0		-0.17044381713867188	5.92602294921875	0		
0.007699049949645996	-1.5122100710868836E-4	0		0.5412107543945313	-2.600377197265625	0		-0.8100870971679688	0.3737295532226563	0		-0.45347885131835936	-3.216459716796875	0		1.8569251708984376	-1.1421932373046875	0		3.425217041015625	-0.5945307006835937	0		4.54796630859375	-0.2860223083496094	0		5.93593017578125	0.3565219421386719	0		-0.17097726440429686	5.92701904296875	0		
0.008093564033508301	-1.6216400265693664E-4	0		0.5355405883789063	-2.60735693359375	0		-0.8147130737304688	0.3697557678222656	0		-0.45123226928710936	-3.23647802734375	0		1.824029541015625	-1.189022705078125	0		3.42257666015625	-0.599553955078125	0		4.55922802734375	-0.3081369934082031	0		5.9362265625	0.339458740234375	0		-0.1705301971435547	5.927009765625	0		
-0.04554453277587891	1.5036000311374664E-4	0		0.5257818603515625	-2.62331201171875	0		-0.8843773193359376	0.3651716613769531	0		-0.43404507446289065	-3.26058544921875	0		1.87116943359375	-1.2243302001953125	0		3.45877001953125	-0.6268106689453125	0		4.57358154296875	-0.30927130126953123	0		5.93659033203125	0.3393934936523437	0		-0.16912034606933593	5.9259951171875	0		
0.008765287399291992	-1.820790022611618E-4	0		0.5609888916015625	-2.6365361328125	0		-0.80408837890625	0.36069171142578127	0		-0.4618311157226562	-3.2714228515625	0		1.83138525390625	-1.2381180419921876	0		3.447170654296875	-0.610781982421875	0		4.57690234375	-0.30734100341796877	0		5.936904296875	0.33932669067382815	0		-0.15368678283691406	5.93689697265625	0		
-0.044985870361328124	1.3295400142669677E-4	0		0.5612103271484375	-2.63655029296875	0		-0.8179086303710937	0.34877517700195315	0		-0.38473733520507813	-3.291888427734375	0		1.8834459228515625	-1.2674564208984376	0		3.48920166015625	-0.6460765380859375	0		4.59205859375	-0.3224832763671875	0		5.93310791015625	0.33128265380859373	0		-0.1684451904296875	5.92597998046875	0		
0.00918992519378662	-1.9896799325942993E-4	0		0.55531787109375	-2.643528076171875	0		-0.817728271484375	0.34877569580078127	0		-0.42762994384765624	-3.297634033203125	0		1.88939306640625	-1.303519287109375	0		3.485341796875	-0.6510964965820313	0		4.59624560546875	-0.320560791015625	0		5.93823388671875	0.322183349609375	0		-0.16821304321289063	5.9249736328125	0		
-0.04470709991455078	1.1892300099134446E-4	0		0.5593012084960938	-2.658564697265625	0		-0.8266705322265625	0.34083172607421874	0		-0.3177217102050781	-3.324298095703125	0		1.9263660888671874	-1.3227689208984375	0		3.479376953125	-0.6611044921875	0		4.60530322265625	-0.3276689147949219	0		5.91629150390625	0.314245361328125	0		-0.16804766845703126	5.92496875	0		
0.006295936107635498	-0.00419403076171875	0		0.5582880859375	-2.66057080078125	0		-0.9007398681640625	0.32428134155273436	0		-0.41475247192382814	-3.327715576171875	0		1.890235595703125	-1.34657861328125	0		3.4813193359375	-0.6741605224609375	0		4.62023291015625	-0.34381341552734374	0		5.9163232421875	0.3141744079589844	0		-0.16696058654785156	5.92395849609375	0		
-0.04471936416625977	1.093899980187416E-4	0		0.5671694946289062	-2.6686357421875	0		-0.81583251953125	0.3147735595703125	0		-0.3699154357910156	-3.341987060546875	0		1.945022216796875	-1.37293603515625	0		3.53122802734375	-0.6815059204101562	0		4.624232421875	-0.33689166259765624	0		5.9252802734375	0.3130494079589844	0		-0.14888670349121094	5.9318466796875	0		
0.01722318649291992	0.006732120037078858	0		0.5670406494140625	-2.66864453125	0		-0.8159276123046875	0.3147803649902344	0		-0.4060390930175781	-3.339767333984375	0		1.9428837890625	-1.3769482421875	0		3.508128173828125	-0.6804089965820312	0		4.63710107421875	-0.3420226440429687	0		5.89819140625	0.3141434631347656	0		-0.1659725341796875	5.92294921875	0		
0.009037318229675293	-2.191780060529709E-4	0		0.5618242797851563	-2.675620361328125	0		-0.8301341552734375	0.303875	0		-0.3113437805175781	-3.360338134765625	0		1.951524169921875	-1.4100240478515624	0		3.513819091796875	-0.7064845581054687	0		4.6378642578125	-0.35707864379882814	0		5.9030029296875	0.30604644775390627	0		-0.1660487976074219	5.922951171875	0		
0.008862467765808105	-2.1641099452972411E-4	0		0.5575946655273437	-2.679599609375	0		-0.9053588256835937	0.29534317016601563	0		-0.3736044616699219	-3.367955078125	0		1.9552724609375	-1.4200675048828124	0		3.549580810546875	-0.7157403564453125	0		4.65469287109375	-0.356229736328125	0		5.898685546875	0.28200665283203125	0		-0.166156005859375	5.9229560546875	0		
0.008668254852294922	-2.114579975605011E-4	0		0.5632906494140625	-2.69263720703125	0		-0.8345753173828125	0.29092648315429687	0		-0.3438863525390625	-3.376128173828125	0		1.9649583740234375	-1.4371453857421874	0		3.53128759765625	-0.7306659545898437	0		4.65944775390625	-0.36430581665039063	0		5.88454345703125	0.2900294494628906	0		-0.1652887268066406	5.92195703125	0		
0.005439880847930908	-0.004186371803283692	0		0.5090997924804688	-2.6853076171875	0		-0.9047991333007812	0.28736968994140627	0		-0.40214584350585936	-3.378763671875	0		1.980670654296875	-1.4482581787109374	0		3.549166259765625	-0.7158092041015625	0		4.66518603515625	-0.37338592529296877	0		5.8892880859375	0.28093930053710936	0		-0.15035888671875	5.9328740234375	0		
0.012276103973388672	0.0027790839672088624	0		0.5648318481445312	-2.690646728515625	0		-0.9050023193359376	0.28738821411132814	0		-0.3803659362792969	-3.37488525390625	0		1.9804481201171875	-1.4482718505859375	0		3.557823486328125	-0.7368950805664063	0		4.6590322265625	-0.3643909301757812	0		5.8890849609375	0.2808818664550781	0		-0.16457199096679687	5.9209697265625	0		
0.008054564476013184	-1.8643300235271455E-4	0		0.5605745849609375	-2.694618408203125	0		-0.9192755737304688	0.275494140625	0		-0.3047362365722656	-3.396335693359375	0		1.9901246337890626	-1.465344482421875	0		3.5695751953125	-0.7429973754882813	0		4.6547841796875	-0.3714052429199219	0		5.8758359375	0.27290695190429687	0		-0.16471022033691407	5.92098193359375	0		
0.007857500076293945	-1.7467999458312987E-4	0		0.5843051147460937	-2.701759521484375	0		-0.8385509033203125	0.26201953125	0		-0.38888864135742185	-3.382805908203125	0		1.9938443603515625	-1.47637841796875	0		3.550345947265625	-0.746907470703125	0		4.65649267578125	-0.386453369140625	0		5.8715927734375	0.26488015747070315	0		-0.1658373260498047	5.92200146484375	0		
-0.05034883499145508	-0.0028048460483551026	0		0.5561004638671875	-2.699580078125	0		-0.9178093872070312	0.2505274047851562	0		-0.29828079223632814	-3.410346435546875	0		2.0005966796875	-1.4834285888671874	0		3.568062744140625	-0.7610414428710938	0		4.65630078125	-0.3864866638183594	0		5.8673515625	0.25585671997070314	0		-0.16398243713378907	5.9190048828125	0		
